#N canvas 0 119 1920 961 10;
#X obj 526 257 packOSC;
#X floatatom 206 144 5 0 0 0 - - -, f 5;
#X obj 235 289 packOSC;
#X floatatom 52 144 5 0 0 0 - - -, f 5;
#X floatatom 361 144 5 0 0 0 - - -, f 5;
#X obj 526 199 pack i i f, f 16;
#X obj 526 67 bng 15 250 50 0 empty empty empty 17 7 0 10 -262144 -1
-1;
#X msg 526 158 0;
#X msg 526 229 /source/send/spatial \$1 \$2 \$3;
#X text 21 18 Direct control of the SC mixer and renderer:;
#X msg 572 157 0;
#X obj 1309 319 packOSC;
#X floatatom 1309 250 5 0 0 0 - - -, f 5;
#X msg 620 158 0;
#X obj 1315 501 packOSC;
#X floatatom 1315 432 5 0 0 0 - - -, f 5;
#X text 1311 397 Send the first source to WFS;
#X text 1307 209 Send the first source to HOA;
#X obj 920 275 packOSC;
#X floatatom 920 213 5 0 0 0 - - -, f 5;
#X text 916 186 Reverb level;
#X msg 920 247 /source/reverb/gain 0 \$1;
#X msg 1315 473 /source/send/spatial 0 1 \$1;
#X msg 1309 291 /source/send/spatial 0 0 \$1;
#X msg 52 167 /source/pos/azim 0 \$1;
#X msg 206 167 /source/pos/elev 0 \$1;
#X msg 361 167 /source/pos/dist 0 \$1;
#X obj 916 115 packOSC;
#X floatatom 916 53 5 0 0 0 - - -, f 5;
#X msg 916 87 /source/sub/gain 0 \$1;
#X text 912 26 Sub level;
#X obj 547 772 udpsend;
#X msg 145 616 connect localhost 57120;
#X msg 595 754 disconnect;
#X msg 124 716 connect 130.149.23.24 57120;
#X obj 1150 759 udpsend;
#X msg 748 603 connect localhost 57120;
#X msg 912 603 disconnect;
#X msg 748 653 connect 130.149.23.16 57120;
#X obj 505 412 s MSG;
#X obj 547 727 r MSG;
#X obj 1195 741 r MSG;
#X obj 1410 741 auto-rotate;
#X connect 0 0 39 0;
#X connect 1 0 25 0;
#X connect 2 0 39 0;
#X connect 3 0 24 0;
#X connect 4 0 26 0;
#X connect 5 0 8 0;
#X connect 6 0 7 0;
#X connect 6 0 10 0;
#X connect 6 0 13 0;
#X connect 7 0 5 0;
#X connect 8 0 0 0;
#X connect 10 0 5 1;
#X connect 11 0 39 0;
#X connect 12 0 23 0;
#X connect 13 0 5 2;
#X connect 14 0 39 0;
#X connect 15 0 22 0;
#X connect 18 0 39 0;
#X connect 19 0 21 0;
#X connect 21 0 18 0;
#X connect 22 0 14 0;
#X connect 23 0 11 0;
#X connect 24 0 2 0;
#X connect 25 0 2 0;
#X connect 26 0 2 0;
#X connect 27 0 39 0;
#X connect 28 0 29 0;
#X connect 29 0 27 0;
#X connect 32 0 31 0;
#X connect 33 0 31 0;
#X connect 34 0 31 0;
#X connect 36 0 35 0;
#X connect 37 0 35 0;
#X connect 38 0 35 0;
#X connect 40 0 31 0;
#X connect 41 0 35 0;
