#N canvas 416 280 1064 584 10;
#X obj 436 484 udpsend;
#X obj 526 257 packOSC;
#X msg 594 419 connect localhost 57120;
#X msg 596 445 disconnect;
#X floatatom 206 144 5 0 0 0 - - -, f 5;
#X obj 235 289 packOSC;
#X floatatom 52 144 5 0 0 0 - - -, f 5;
#X floatatom 361 144 5 0 0 0 - - -, f 5;
#X obj 526 199 pack i i f, f 16;
#X obj 526 67 bng 15 250 50 0 empty empty empty 17 7 0 10 -262144 -1
-1;
#X msg 526 158 0;
#X msg 526 229 /source/send/spatial \$1 \$2 \$3;
#X msg 52 167 /source/pos/azim 0 \$1;
#X msg 206 167 /source/pos/elev 0 \$1;
#X text 21 18 Direct control of the SC mixer and renderer:;
#X msg 620 158 0;
#X msg 572 157 0;
#X obj 746 258 packOSC;
#X floatatom 746 189 5 0 0 0 - - -, f 5;
#X msg 746 230 /source/send/spatial 0 0 \$1;
#X msg 361 167 /source/pos/dist 0 \$1;
#X connect 1 0 0 0;
#X connect 2 0 0 0;
#X connect 3 0 0 0;
#X connect 4 0 13 0;
#X connect 5 0 0 0;
#X connect 6 0 12 0;
#X connect 7 0 20 0;
#X connect 8 0 11 0;
#X connect 9 0 10 0;
#X connect 9 0 16 0;
#X connect 9 0 15 0;
#X connect 10 0 8 0;
#X connect 11 0 1 0;
#X connect 12 0 5 0;
#X connect 13 0 5 0;
#X connect 15 0 8 2;
#X connect 16 0 8 1;
#X connect 17 0 0 0;
#X connect 18 0 19 0;
#X connect 19 0 17 0;
#X connect 20 0 5 0;
