#N canvas 1 374 1920 705 10;
#X obj 526 257 packOSC;
#X floatatom 206 144 5 0 0 0 - - -, f 5;
#X obj 235 289 packOSC;
#X floatatom 52 144 5 0 0 0 - - -, f 5;
#X floatatom 361 144 5 0 0 0 - - -, f 5;
#X obj 526 199 pack i i f, f 16;
#X obj 526 67 bng 15 250 50 0 empty empty empty 17 7 0 10 -262144 -1
-1;
#X msg 526 158 0;
#X msg 526 229 /source/send/spatial \$1 \$2 \$3;
#X text 21 18 Direct control of the SC mixer and renderer:;
#X msg 572 157 0;
#X obj 1309 319 packOSC;
#X floatatom 1309 250 5 0 0 0 - - -, f 5;
#X msg 620 158 0;
#X obj 1315 501 packOSC;
#X floatatom 1315 432 5 0 0 0 - - -, f 5;
#X text 1311 397 Send the first source to WFS;
#X text 1307 209 Send the first source to HOA;
#X obj 920 275 packOSC;
#X floatatom 920 213 5 0 0 0 - - -, f 5;
#X text 916 186 Reverb level;
#X msg 920 247 /source/reverb/gain 0 \$1;
#X msg 52 167 /source/pos/azim 0 \$1;
#X msg 206 167 /source/pos/elev 0 \$1;
#X msg 361 167 /source/pos/dist 0 \$1;
#X obj 916 115 packOSC;
#X floatatom 916 53 5 0 0 0 - - -, f 5;
#X msg 916 87 /source/sub/gain 0 \$1;
#X text 912 26 Sub level;
#X obj 795 876 udpsend;
#X msg 587 866 connect localhost 57120;
#X msg 843 858 disconnect;
#X msg 582 831 connect 130.149.23.24 57120;
#X obj 1150 759 udpsend;
#X msg 748 603 connect localhost 57120;
#X msg 912 603 disconnect;
#X msg 748 653 connect 130.149.23.16 57120;
#X obj 505 412 s MSG;
#X obj 795 831 r MSG;
#X obj 1195 741 r MSG;
#X obj 1410 741 auto-rotate;
#X msg 61 585 /WONDER/source/position 0 \$1 \$2;
#X msg 129 700 connect 130.149.23.24 58100;
#X obj 51 751 udpsend;
#X obj 61 608 packOSC;
#X obj 61 514 pack f f;
#X floatatom 56 462 5 0 0 0 - - -, f 5;
#X floatatom 121 415 5 0 0 0 - - -, f 5;
#X obj 121 437 bang;
#X msg 1309 290 /source/send/spatial 10 0 \$1;
#X msg 1315 473 /source/send/spatial 22 1 \$1;
#X connect 0 0 37 0;
#X connect 1 0 23 0;
#X connect 2 0 37 0;
#X connect 3 0 22 0;
#X connect 4 0 24 0;
#X connect 5 0 8 0;
#X connect 6 0 7 0;
#X connect 6 0 10 0;
#X connect 6 0 13 0;
#X connect 7 0 5 0;
#X connect 8 0 0 0;
#X connect 10 0 5 1;
#X connect 11 0 37 0;
#X connect 12 0 49 0;
#X connect 13 0 5 2;
#X connect 14 0 37 0;
#X connect 15 0 50 0;
#X connect 18 0 37 0;
#X connect 19 0 21 0;
#X connect 21 0 18 0;
#X connect 22 0 2 0;
#X connect 23 0 2 0;
#X connect 24 0 2 0;
#X connect 25 0 37 0;
#X connect 26 0 27 0;
#X connect 27 0 25 0;
#X connect 30 0 29 0;
#X connect 31 0 29 0;
#X connect 32 0 29 0;
#X connect 34 0 33 0;
#X connect 35 0 33 0;
#X connect 36 0 33 0;
#X connect 38 0 29 0;
#X connect 39 0 33 0;
#X connect 41 0 44 0;
#X connect 42 0 43 0;
#X connect 44 0 43 0;
#X connect 45 0 41 0;
#X connect 46 0 45 0;
#X connect 47 0 45 1;
#X connect 47 0 48 0;
#X connect 48 0 46 0;
#X connect 49 0 11 0;
#X connect 50 0 14 0;
