#N canvas 0 119 1920 961 10;
#X obj 526 257 packOSC;
#X floatatom 206 144 5 0 0 0 - - -, f 5;
#X obj 235 289 packOSC;
#X floatatom 52 144 5 0 0 0 - - -, f 5;
#X floatatom 361 144 5 0 0 0 - - -, f 5;
#X obj 526 199 pack i i f, f 16;
#X obj 526 67 bng 15 250 50 0 empty empty empty 17 7 0 10 -262144 -1
-1;
#X msg 526 158 0;
#X msg 526 229 /source/send/spatial \$1 \$2 \$3;
#X text 21 18 Direct control of the SC mixer and renderer:;
#X msg 572 157 0;
#X obj 1309 319 packOSC;
#X floatatom 1309 250 5 0 0 0 - - -, f 5;
#X msg 620 158 0;
#X obj 1315 501 packOSC;
#X floatatom 1315 432 5 0 0 0 - - -, f 5;
#X text 1311 397 Send the first source to WFS;
#X text 1307 209 Send the first source to HOA;
#X obj 920 275 packOSC;
#X floatatom 920 213 5 0 0 0 - - -, f 5;
#X text 916 186 Reverb level;
#X obj 916 115 packOSC;
#X floatatom 916 53 5 0 0 0 - - -, f 5;
#X msg 916 87 /source/sub/gain 0 \$1;
#X text 912 26 Sub level;
#X msg 802 713 disconnect;
#X obj 505 412 s MSG;
#X obj 754 686 r MSG;
#X obj 1427 622 auto-rotate;
#X msg 61 585 /WONDER/source/position 0 \$1 \$2;
#X obj 51 751 udpsend;
#X obj 61 608 packOSC;
#X obj 61 514 pack f f;
#X floatatom 56 462 5 0 0 0 - - -, f 5;
#X floatatom 121 415 5 0 0 0 - - -, f 5;
#X obj 121 437 bang;
#X msg 129 700 connect hufo1 58100;
#X msg 541 686 connect hufo1 57120;
#X msg 804 836 disconnect;
#X obj 756 809 r MSG;
#X msg 543 809 connect hufo2 57120;
#X msg 1229 830 disconnect;
#X obj 1181 803 r MSG;
#X msg 968 803 connect hufo3 57120;
#X msg 840 596 disconnect;
#X obj 792 569 r MSG;
#X msg 579 569 connect 172.25.18.201 4455;
#X msg 1315 473 /source/send/spatial 1 1 \$1;
#X msg 1309 290 /source/send/spatial 1 0 \$1;
#X obj 792 614 udpsend;
#X obj 754 731 _udpsend;
#X obj 756 854 _udpsend;
#X obj 1181 848 _udpsend;
#X msg 361 167 /source/pos/dist 1 \$1;
#X msg 52 167 /source/pos/azim 1 \$1;
#X msg 206 167 /source/pos/elev 1 \$1;
#X msg 920 247 /source/reverb/gain 1 \$1;
#X connect 0 0 26 0;
#X connect 1 0 55 0;
#X connect 2 0 26 0;
#X connect 3 0 54 0;
#X connect 4 0 53 0;
#X connect 5 0 8 0;
#X connect 6 0 7 0;
#X connect 6 0 10 0;
#X connect 6 0 13 0;
#X connect 7 0 5 0;
#X connect 8 0 0 0;
#X connect 10 0 5 1;
#X connect 11 0 26 0;
#X connect 12 0 48 0;
#X connect 13 0 5 2;
#X connect 14 0 26 0;
#X connect 15 0 47 0;
#X connect 18 0 26 0;
#X connect 19 0 56 0;
#X connect 21 0 26 0;
#X connect 22 0 23 0;
#X connect 23 0 21 0;
#X connect 25 0 50 0;
#X connect 27 0 50 0;
#X connect 29 0 31 0;
#X connect 31 0 30 0;
#X connect 32 0 29 0;
#X connect 33 0 32 0;
#X connect 34 0 32 1;
#X connect 34 0 35 0;
#X connect 35 0 33 0;
#X connect 36 0 30 0;
#X connect 37 0 50 0;
#X connect 38 0 51 0;
#X connect 39 0 51 0;
#X connect 40 0 51 0;
#X connect 41 0 52 0;
#X connect 42 0 52 0;
#X connect 43 0 52 0;
#X connect 44 0 49 0;
#X connect 45 0 49 0;
#X connect 46 0 49 0;
#X connect 47 0 14 0;
#X connect 48 0 11 0;
#X connect 53 0 2 0;
#X connect 54 0 2 0;
#X connect 55 0 2 0;
#X connect 56 0 18 0;
