#N canvas 0 119 1920 961 10;
#X obj 850 92 udpreceive;
#X msg 850 59 port 9001;
#X obj 1175 197 counter;
#X obj 1175 166 bng 15 250 50 0 empty empty empty 17 7 0 10 -262144
-1 -1;
#X floatatom 1189 272 20 0 0 1 Packets/s - -, f 20;
#X obj 1253 168 metro 1000;
#X obj 1253 133 tgl 15 0 empty empty empty 17 7 0 10 -262144 -1 -1
0 1;
#X obj 1189 242 i, f 7;
#X msg 1203 166 set 0;
#X msg 1234 218 0;
#X obj 1234 196 t b b b;
#X msg 1174 115 1;
#N canvas 2560 58 1920 1022 gains 0;
#X obj 298 -22 unpackOSC;
#X obj 298 23 routeOSC /send/gain;
#X obj 298 46 route 1;
#X obj 176 137 route 0;
#X obj 257 137 route 1;
#X obj 336 137 route 2;
#X obj 416 137 route 3;
#X obj 176 169 vsl 15 128 0 1 0 0 empty empty empty 0 -9 0 10 -262144
-1 -1 9652 1;
#X obj 257 169 vsl 15 128 0 1 0 0 empty empty empty 0 -9 0 10 -262144
-1 -1 2413 1;
#X obj 336 169 vsl 15 128 0 1 0 0 empty empty empty 0 -9 0 10 -262144
-1 -1 0 1;
#X obj 416 169 vsl 15 128 0 1 0 0 empty empty empty 0 -9 0 10 -262144
-1 -1 0 1;
#X obj 298 -75 inlet;
#X connect 0 0 1 0;
#X connect 1 0 2 0;
#X connect 2 0 3 0;
#X connect 2 0 4 0;
#X connect 2 0 5 0;
#X connect 2 0 6 0;
#X connect 3 0 7 0;
#X connect 4 0 8 0;
#X connect 5 0 9 0;
#X connect 6 0 10 0;
#X connect 11 0 0 0;
#X coords 0 -1 1 1 416 245 1 100 100;
#X restore 1115 353 pd gains;
#N canvas 0 119 1920 961 reverb 0;
#X obj 684 140 unpackOSC;
#X obj 116 256 routeOSC /reverb/gain;
#X floatatom 116 279 5 0 0 0 - - -, f 5;
#X obj 116 301 bng 15 250 50 0 empty empty empty 17 7 0 10 -262144
-1 -1;
#X floatatom 264 279 5 0 0 0 - - -, f 5;
#X obj 264 301 bng 15 250 50 0 empty empty empty 17 7 0 10 -262144
-1 -1;
#X obj 264 256 routeOSC /reverb/f1;
#X floatatom 403 279 5 0 0 0 - - -, f 5;
#X obj 403 301 bng 15 250 50 0 empty empty empty 17 7 0 10 -262144
-1 -1;
#X obj 403 256 routeOSC /reverb/f2;
#X floatatom 533 279 5 0 0 0 - - -, f 5;
#X obj 533 301 bng 15 250 50 0 empty empty empty 17 7 0 10 -262144
-1 -1;
#X obj 533 256 routeOSC /reverb/rdel;
#X floatatom 683 279 5 0 0 0 - - -, f 5;
#X obj 683 301 bng 15 250 50 0 empty empty empty 17 7 0 10 -262144
-1 -1;
#X obj 683 256 routeOSC /reverb/rgxyz;
#X floatatom 833 279 5 0 0 0 - - -, f 5;
#X obj 833 301 bng 15 250 50 0 empty empty empty 17 7 0 10 -262144
-1 -1;
#X obj 833 256 routeOSC /reverb/t60dc;
#X floatatom 993 279 5 0 0 0 - - -, f 5;
#X obj 993 301 bng 15 250 50 0 empty empty empty 17 7 0 10 -262144
-1 -1;
#X obj 993 256 routeOSC /reverb/t60m;
#X floatatom 1133 279 5 0 0 0 - - -, f 5;
#X obj 1133 301 bng 15 250 50 0 empty empty empty 17 7 0 10 -262144
-1 -1;
#X obj 1133 256 routeOSC /reverb/lp/freq;
#X floatatom 1293 279 5 0 0 0 - - -, f 5;
#X obj 1293 301 bng 15 250 50 0 empty empty empty 17 7 0 10 -262144
-1 -1;
#X obj 1293 256 routeOSC /reverb/lp/rs;
#X floatatom 1443 279 5 0 0 0 - - -, f 5;
#X obj 1443 301 bng 15 250 50 0 empty empty empty 17 7 0 10 -262144
-1 -1;
#X obj 1443 256 routeOSC /reverb/lp/db;
#X obj 684 87 inlet;
#X connect 0 0 1 0;
#X connect 0 0 6 0;
#X connect 0 0 9 0;
#X connect 0 0 12 0;
#X connect 0 0 15 0;
#X connect 0 0 18 0;
#X connect 0 0 21 0;
#X connect 0 0 24 0;
#X connect 0 0 27 0;
#X connect 0 0 30 0;
#X connect 1 0 2 0;
#X connect 2 0 3 0;
#X connect 4 0 5 0;
#X connect 6 0 4 0;
#X connect 7 0 8 0;
#X connect 9 0 7 0;
#X connect 10 0 11 0;
#X connect 12 0 10 0;
#X connect 13 0 14 0;
#X connect 15 0 13 0;
#X connect 16 0 17 0;
#X connect 18 0 16 0;
#X connect 19 0 20 0;
#X connect 21 0 19 0;
#X connect 22 0 23 0;
#X connect 24 0 22 0;
#X connect 25 0 26 0;
#X connect 27 0 25 0;
#X connect 28 0 29 0;
#X connect 30 0 28 0;
#X connect 31 0 0 0;
#X coords 0 -1 1 1 1319 151 1 111 222;
#X restore 176 633 pd reverb;
#N canvas 0 119 1920 961 source 0;
#X obj 443 118 unpackOSC;
#X obj 379 300 routeOSC /source/pos/x;
#X obj 537 299 routeOSC /source/pos/y;
#X obj 698 298 routeOSC /source/pos/z;
#X obj 379 323 route 1;
#X obj 698 321 route 1;
#X floatatom 379 346 5 0 0 0 - - -, f 5;
#X floatatom 537 345 5 0 0 0 - - -, f 5;
#X floatatom 698 344 5 0 0 0 - - -, f 5;
#X obj 537 322 route 1;
#X obj 215 298 routeOSC /source/pos/x;
#X floatatom 215 344 5 0 0 0 - - -, f 5;
#X obj 443 78 inlet;
#X obj 537 374 bng 15 250 50 0 empty empty empty 17 7 0 10 -262144
-1 -1;
#X obj 697 373 bng 15 250 50 0 empty empty empty 17 7 0 10 -262144
-1 -1;
#X obj 215 370 bng 15 250 50 0 empty empty empty 17 7 0 10 -262144
-1 -1;
#X obj 380 380 bng 15 250 50 0 empty empty empty 17 7 0 10 -262144
-1 -1;
#X obj 687 97 inlet;
#X obj 215 321 route 1;
#X connect 0 0 1 0;
#X connect 0 0 2 0;
#X connect 0 0 3 0;
#X connect 0 0 10 0;
#X connect 1 0 4 0;
#X connect 2 0 9 0;
#X connect 3 0 5 0;
#X connect 4 0 6 0;
#X connect 5 0 8 0;
#X connect 6 0 16 0;
#X connect 7 0 13 0;
#X connect 8 0 14 0;
#X connect 9 0 7 0;
#X connect 10 0 18 0;
#X connect 11 0 15 0;
#X connect 12 0 0 0;
#X connect 17 0 18 1;
#X connect 17 0 4 1;
#X connect 17 0 9 1;
#X connect 17 0 5 1;
#X connect 18 0 11 0;
#X coords 0 -1 1 1 613 147 1 200 277;
#X restore 475 451 pd source;
#X connect 0 0 3 0;
#X connect 0 0 12 0;
#X connect 0 0 13 0;
#X connect 0 0 14 0;
#X connect 1 0 0 0;
#X connect 2 0 7 1;
#X connect 3 0 2 0;
#X connect 5 0 10 0;
#X connect 6 0 5 0;
#X connect 7 0 4 0;
#X connect 8 0 2 0;
#X connect 9 0 7 1;
#X connect 10 0 9 0;
#X connect 10 1 8 0;
#X connect 10 2 7 0;
#X connect 11 0 6 0;
