#N canvas -328 266 1247 741 10;
#X obj 436 484 udpsend;
#X msg 36 380 disconnect;
#X text 21 18 Direct control of the SC mixer and renderer:;
#X obj 746 258 packOSC;
#X floatatom 746 189 5 0 0 0 - - -, f 5;
#X msg 34 354 connect 130.149.23.24 57120;
#X obj 1006 256 packOSC;
#X floatatom 1006 187 5 0 0 0 - - -, f 5;
#X text 1002 152 Send the first source to WFS;
#X text 744 148 Send the first source to HOA;
#X obj 23 188 packOSC;
#X floatatom 23 109 5 0 0 0 - - -, f 5;
#X text 38 80 Send the first source to WFS;
#X obj 23 131 f;
#X obj 248 188 packOSC;
#X floatatom 248 109 5 0 0 0 - - -, f 5;
#X obj 248 131 f;
#X obj 459 188 packOSC;
#X floatatom 459 109 5 0 0 0 - - -, f 5;
#X obj 459 131 f;
#X msg 1006 228 sendtyped /send/gain iif 1 2 \$1;
#X msg 34 328 connect localhost 12222;
#X msg 459 160 sendtyped /source/pos/z if 1 \$1;
#X msg 21 160 sendtyped /source/pos/x if 1 \$1;
#X msg 248 160 sendtyped /source/pos/y if 1 \$1;
#X msg 746 230 sendtyped /send/gain iif 1 0 \$1;
#X connect 1 0 0 0;
#X connect 3 0 0 0;
#X connect 4 0 25 0;
#X connect 5 0 0 0;
#X connect 6 0 0 0;
#X connect 7 0 20 0;
#X connect 10 0 0 0;
#X connect 11 0 13 0;
#X connect 13 0 23 0;
#X connect 14 0 0 0;
#X connect 15 0 16 0;
#X connect 16 0 24 0;
#X connect 17 0 0 0;
#X connect 18 0 19 0;
#X connect 19 0 22 0;
#X connect 20 0 6 0;
#X connect 21 0 0 0;
#X connect 22 0 17 0;
#X connect 23 0 10 0;
#X connect 24 0 14 0;
#X connect 25 0 3 0;
